# Blender 5.1.2
# www.blender.org
mtllib sphere.mtl
o Sphere
v 0.000000 1.000000 0.000000
v 0.000000 0.831470 -0.555570
v 0.000000 0.555570 -0.831470
v 0.000000 0.195090 -0.980785
v 0.000000 0.000000 -1.000000
v 0.000000 -0.195090 -0.980785
v 0.000000 -0.555570 -0.831470
v 0.000000 -1.000000 0.000000
v 0.038060 0.980785 -0.191342
v 0.074658 0.923880 -0.375330
v 0.108386 0.831470 -0.544895
v 0.137950 0.707107 -0.693520
v 0.162212 0.555570 -0.815493
v 0.180240 0.382683 -0.906127
v 0.191342 0.195090 -0.961940
v 0.195090 0.000000 -0.980785
v 0.191342 -0.195090 -0.961940
v 0.180240 -0.382683 -0.906127
v 0.162212 -0.555570 -0.815493
v 0.137950 -0.707107 -0.693520
v 0.108386 -0.831470 -0.544895
v 0.074658 -0.923880 -0.375330
v 0.038060 -0.980785 -0.191342
v 0.074658 0.980785 -0.180240
v 0.146447 0.923880 -0.353553
v 0.212608 0.831470 -0.513280
v 0.270598 0.707107 -0.653281
v 0.318190 0.555570 -0.768178
v 0.353553 0.382683 -0.853553
v 0.375330 0.195090 -0.906127
v 0.382683 0.000000 -0.923879
v 0.375330 -0.195090 -0.906127
v 0.353553 -0.382683 -0.853553
v 0.318190 -0.555570 -0.768178
v 0.270598 -0.707107 -0.653281
v 0.212608 -0.831470 -0.513280
v 0.146447 -0.923880 -0.353553
v 0.074658 -0.980785 -0.180240
v 0.108386 0.980785 -0.162212
v 0.212608 0.923880 -0.318190
v 0.308658 0.831470 -0.461940
v 0.392847 0.707107 -0.587938
v 0.461940 0.555570 -0.691342
v 0.513280 0.382683 -0.768178
v 0.544895 0.195090 -0.815493
v 0.555570 0.000000 -0.831469
v 0.544895 -0.195090 -0.815493
v 0.513280 -0.382683 -0.768178
v 0.461940 -0.555570 -0.691342
v 0.392847 -0.707107 -0.587938
v 0.308658 -0.831470 -0.461940
v 0.212608 -0.923880 -0.318190
v 0.108386 -0.980785 -0.162212
v 0.137950 0.980785 -0.137950
v 0.270598 0.923880 -0.270598
v 0.392847 0.831470 -0.392847
v 0.500000 0.707107 -0.500000
v 0.587938 0.555570 -0.587938
v 0.653281 0.382683 -0.653281
v 0.693520 0.195090 -0.693520
v 0.707107 0.000000 -0.707107
v 0.693520 -0.195090 -0.693520
v 0.653281 -0.382683 -0.653281
v 0.587938 -0.555570 -0.587938
v 0.500000 -0.707107 -0.500000
v 0.392847 -0.831470 -0.392847
v 0.270598 -0.923880 -0.270598
v 0.137950 -0.980785 -0.137950
v 0.162212 0.980785 -0.108386
v 0.318190 0.923880 -0.212608
v 0.461940 0.831470 -0.308658
v 0.587938 0.707107 -0.392847
v 0.691342 0.555570 -0.461940
v 0.768178 0.382683 -0.513280
v 0.815493 0.195090 -0.544895
v 0.831470 0.000000 -0.555570
v 0.815493 -0.195090 -0.544895
v 0.768178 -0.382683 -0.513280
v 0.691342 -0.555570 -0.461940
v 0.587938 -0.707107 -0.392847
v 0.461940 -0.831470 -0.308658
v 0.318190 -0.923880 -0.212608
v 0.162212 -0.980785 -0.108386
v 0.180240 0.980785 -0.074658
v 0.353553 0.923880 -0.146447
v 0.513280 0.831470 -0.212607
v 0.653281 0.707107 -0.270598
v 0.768178 0.555570 -0.318190
v 0.853553 0.382683 -0.353553
v 0.906127 0.195090 -0.375330
v 0.923879 0.000000 -0.382683
v 0.906127 -0.195090 -0.375330
v 0.853553 -0.382683 -0.353553
v 0.768178 -0.555570 -0.318190
v 0.653281 -0.707107 -0.270598
v 0.513280 -0.831470 -0.212607
v 0.353553 -0.923880 -0.146447
v 0.180240 -0.980785 -0.074658
v 0.191342 0.980785 -0.038060
v 0.375330 0.923880 -0.074658
v 0.544895 0.831470 -0.108386
v 0.693520 0.707107 -0.137950
v 0.815493 0.555570 -0.162212
v 0.906127 0.382683 -0.180240
v 0.961940 0.195090 -0.191342
v 0.980785 0.000000 -0.195090
v 0.961940 -0.195090 -0.191342
v 0.906127 -0.382683 -0.180240
v 0.815493 -0.555570 -0.162212
v 0.693520 -0.707107 -0.137950
v 0.544895 -0.831470 -0.108386
v 0.375330 -0.923880 -0.074658
v 0.191342 -0.980785 -0.038060
v 0.195090 0.980785 0.000000
v 0.382683 0.923880 0.000000
v 0.555570 0.831470 0.000000
v 0.707107 0.707107 -0.000000
v 0.831469 0.555570 0.000000
v 0.923879 0.382683 -0.000000
v 0.980785 0.195090 0.000000
v 1.000000 0.000000 0.000000
v 0.980785 -0.195090 0.000000
v 0.923879 -0.382683 -0.000000
v 0.831469 -0.555570 0.000000
v 0.707107 -0.707107 -0.000000
v 0.555570 -0.831470 0.000000
v 0.382683 -0.923880 0.000000
v 0.195090 -0.980785 0.000000
v 0.191342 0.980785 0.038060
v 0.375330 0.923880 0.074658
v 0.544895 0.831470 0.108386
v 0.693520 0.707107 0.137950
v 0.815493 0.555570 0.162212
v 0.906127 0.382683 0.180240
v 0.961940 0.195090 0.191342
v 0.980785 0.000000 0.195090
v 0.961940 -0.195090 0.191342
v 0.906127 -0.382683 0.180240
v 0.815493 -0.555570 0.162212
v 0.693520 -0.707107 0.137950
v 0.544895 -0.831470 0.108386
v 0.375330 -0.923880 0.074658
v 0.191342 -0.980785 0.038060
v 0.180240 0.980785 0.074658
v 0.353553 0.923880 0.146447
v 0.513280 0.831470 0.212608
v 0.653281 0.707107 0.270598
v 0.768178 0.555570 0.318190
v 0.853553 0.382683 0.353553
v 0.906127 0.195090 0.375330
v 0.923879 0.000000 0.382683
v 0.906127 -0.195090 0.375330
v 0.853553 -0.382683 0.353553
v 0.768178 -0.555570 0.318190
v 0.653281 -0.707107 0.270598
v 0.513280 -0.831470 0.212608
v 0.353553 -0.923880 0.146447
v 0.180240 -0.980785 0.074658
v 0.162212 0.980785 0.108386
v 0.318190 0.923880 0.212608
v 0.461940 0.831470 0.308658
v 0.587938 0.707107 0.392847
v 0.691341 0.555570 0.461940
v 0.768178 0.382683 0.513280
v 0.815493 0.195090 0.544895
v 0.831469 0.000000 0.555570
v 0.815493 -0.195090 0.544895
v 0.768178 -0.382683 0.513280
v 0.691341 -0.555570 0.461940
v 0.587938 -0.707107 0.392847
v 0.461940 -0.831470 0.308658
v 0.318190 -0.923880 0.212608
v 0.162212 -0.980785 0.108386
v 0.137950 0.980785 0.137950
v 0.270598 0.923880 0.270598
v 0.392847 0.831470 0.392847
v 0.500000 0.707107 0.500000
v 0.587938 0.555570 0.587938
v 0.653281 0.382683 0.653281
v 0.693520 0.195090 0.693520
v 0.707106 0.000000 0.707107
v 0.693520 -0.195090 0.693520
v 0.653281 -0.382683 0.653281
v 0.587938 -0.555570 0.587938
v 0.500000 -0.707107 0.500000
v 0.392847 -0.831470 0.392847
v 0.270598 -0.923880 0.270598
v 0.137950 -0.980785 0.137950
v 0.108386 0.980785 0.162212
v 0.212607 0.923880 0.318190
v 0.308658 0.831470 0.461940
v 0.392847 0.707107 0.587938
v 0.461940 0.555570 0.691342
v 0.513280 0.382683 0.768178
v 0.544895 0.195090 0.815493
v 0.555570 0.000000 0.831469
v 0.544895 -0.195090 0.815493
v 0.513280 -0.382683 0.768178
v 0.461940 -0.555570 0.691342
v 0.392847 -0.707107 0.587938
v 0.308658 -0.831470 0.461940
v 0.212607 -0.923880 0.318190
v 0.108386 -0.980785 0.162212
v 0.074658 0.980785 0.180240
v 0.146447 0.923880 0.353553
v 0.212607 0.831470 0.513280
v 0.270598 0.707107 0.653281
v 0.318189 0.555570 0.768178
v 0.353553 0.382683 0.853553
v 0.375330 0.195090 0.906127
v 0.382683 0.000000 0.923879
v 0.375330 -0.195090 0.906127
v 0.353553 -0.382683 0.853553
v 0.318189 -0.555570 0.768178
v 0.270598 -0.707107 0.653281
v 0.212607 -0.831470 0.513280
v 0.146447 -0.923880 0.353553
v 0.074658 -0.980785 0.180240
v 0.038060 0.980785 0.191342
v 0.074658 0.923880 0.375330
v 0.108386 0.831470 0.544895
v 0.137950 0.707107 0.693520
v 0.162212 0.555570 0.815493
v 0.180240 0.382683 0.906127
v 0.191342 0.195090 0.961939
v 0.195090 0.000000 0.980785
v 0.191342 -0.195090 0.961939
v 0.180240 -0.382683 0.906127
v 0.162212 -0.555570 0.815493
v 0.137950 -0.707107 0.693520
v 0.108386 -0.831470 0.544895
v 0.074658 -0.923880 0.375330
v 0.038060 -0.980785 0.191342
v -0.000000 0.980785 0.195090
v -0.000000 0.923880 0.382683
v -0.000000 0.831470 0.555570
v -0.000000 0.707107 0.707107
v -0.000000 0.555570 0.831469
v 0.000000 0.382683 0.923879
v -0.000000 0.195090 0.980785
v -0.000000 0.000000 0.999999
v -0.000000 -0.195090 0.980785
v 0.000000 -0.382683 0.923879
v -0.000000 -0.555570 0.831469
v -0.000000 -0.707107 0.707107
v -0.000000 -0.831470 0.555570
v -0.000000 -0.923880 0.382683
v -0.000000 -0.980785 0.195090
v -0.038060 0.980785 0.191342
v -0.074658 0.923880 0.375330
v -0.108386 0.831470 0.544895
v -0.137950 0.707107 0.693520
v -0.162212 0.555570 0.815493
v -0.180240 0.382683 0.906127
v -0.191342 0.195090 0.961939
v -0.195091 0.000000 0.980785
v -0.191342 -0.195090 0.961939
v -0.180240 -0.382683 0.906127
v -0.162212 -0.555570 0.815493
v -0.137950 -0.707107 0.693520
v -0.108386 -0.831470 0.544895
v -0.074658 -0.923880 0.375330
v -0.038060 -0.980785 0.191342
v -0.074658 0.980785 0.180240
v -0.146447 0.923880 0.353553
v -0.212608 0.831470 0.513280
v -0.270598 0.707107 0.653281
v -0.318190 0.555570 0.768177
v -0.353553 0.382683 0.853553
v -0.375330 0.195090 0.906127
v -0.382683 0.000000 0.923879
v -0.375330 -0.195090 0.906127
v -0.353553 -0.382683 0.853553
v -0.318190 -0.555570 0.768177
v -0.270598 -0.707107 0.653281
v -0.212608 -0.831470 0.513280
v -0.146447 -0.923880 0.353553
v -0.074658 -0.980785 0.180240
v -0.108386 0.980785 0.162212
v -0.212608 0.923880 0.318190
v -0.308658 0.831470 0.461939
v -0.392847 0.707107 0.587938
v -0.461940 0.555570 0.691341
v -0.513280 0.382683 0.768178
v -0.544895 0.195090 0.815493
v -0.555570 0.000000 0.831469
v -0.544895 -0.195090 0.815493
v -0.513280 -0.382683 0.768178
v -0.461940 -0.555570 0.691341
v -0.392847 -0.707107 0.587938
v -0.308658 -0.831470 0.461939
v -0.212608 -0.923880 0.318190
v -0.108386 -0.980785 0.162212
v -0.137950 0.980785 0.137950
v -0.270598 0.923880 0.270598
v -0.392847 0.831470 0.392847
v -0.500000 0.707107 0.500000
v -0.587938 0.555570 0.587937
v -0.653281 0.382683 0.653281
v -0.693520 0.195090 0.693520
v -0.707106 0.000000 0.707106
v -0.693520 -0.195090 0.693520
v -0.653281 -0.382683 0.653281
v -0.587938 -0.555570 0.587937
v -0.500000 -0.707107 0.500000
v -0.392847 -0.831470 0.392847
v -0.270598 -0.923880 0.270598
v -0.137950 -0.980785 0.137950
v -0.162212 0.980785 0.108386
v -0.318190 0.923880 0.212607
v -0.461940 0.831470 0.308658
v -0.587938 0.707107 0.392847
v -0.691341 0.555570 0.461939
v -0.768177 0.382683 0.513280
v -0.815493 0.195090 0.544895
v -0.831469 0.000000 0.555569
v -0.815493 -0.195090 0.544895
v -0.768177 -0.382683 0.513280
v -0.691341 -0.555570 0.461939
v -0.587938 -0.707107 0.392847
v -0.461940 -0.831470 0.308658
v -0.318190 -0.923880 0.212607
v -0.162212 -0.980785 0.108386
v -0.180240 0.980785 0.074658
v -0.353553 0.923880 0.146447
v -0.513280 0.831470 0.212607
v -0.653281 0.707107 0.270598
v -0.768177 0.555570 0.318189
v -0.853553 0.382683 0.353553
v -0.906127 0.195090 0.375330
v -0.923879 0.000000 0.382683
v -0.906127 -0.195090 0.375330
v -0.853553 -0.382683 0.353553
v -0.768177 -0.555570 0.318189
v -0.653281 -0.707107 0.270598
v -0.513280 -0.831470 0.212607
v -0.353553 -0.923880 0.146447
v -0.180240 -0.980785 0.074658
v -0.191342 0.980785 0.038060
v -0.375330 0.923880 0.074658
v -0.544895 0.831470 0.108386
v -0.693520 0.707107 0.137950
v -0.815493 0.555570 0.162211
v -0.906127 0.382683 0.180240
v -0.961939 0.195090 0.191341
v -0.980784 0.000000 0.195090
v -0.961939 -0.195090 0.191341
v -0.906127 -0.382683 0.180240
v -0.815493 -0.555570 0.162211
v -0.693520 -0.707107 0.137950
v -0.544895 -0.831470 0.108386
v -0.375330 -0.923880 0.074658
v -0.191342 -0.980785 0.038060
v -0.195090 0.980785 -0.000000
v -0.382683 0.923880 -0.000000
v -0.555570 0.831470 -0.000000
v -0.707107 0.707107 -0.000000
v -0.831469 0.555570 -0.000000
v -0.923879 0.382683 -0.000000
v -0.980785 0.195090 -0.000000
v -0.999999 0.000000 -0.000000
v -0.980785 -0.195090 -0.000000
v -0.923879 -0.382683 -0.000000
v -0.831469 -0.555570 -0.000000
v -0.707107 -0.707107 -0.000000
v -0.555570 -0.831470 -0.000000
v -0.382683 -0.923880 -0.000000
v -0.195090 -0.980785 -0.000000
v -0.191342 0.980785 -0.038060
v -0.375330 0.923880 -0.074658
v -0.544895 0.831470 -0.108386
v -0.693520 0.707107 -0.137950
v -0.815493 0.555570 -0.162212
v -0.906127 0.382683 -0.180240
v -0.961939 0.195090 -0.191342
v -0.980784 0.000000 -0.195091
v -0.961939 -0.195090 -0.191342
v -0.906127 -0.382683 -0.180240
v -0.815493 -0.555570 -0.162212
v -0.693520 -0.707107 -0.137950
v -0.544895 -0.831470 -0.108386
v -0.375330 -0.923880 -0.074658
v -0.191342 -0.980785 -0.038060
v -0.180240 0.980785 -0.074658
v -0.353553 0.923880 -0.146447
v -0.513279 0.831470 -0.212607
v -0.653281 0.707107 -0.270598
v -0.768177 0.555570 -0.318190
v -0.853553 0.382683 -0.353553
v -0.906127 0.195090 -0.375330
v -0.923878 0.000000 -0.382683
v -0.906127 -0.195090 -0.375330
v -0.853553 -0.382683 -0.353553
v -0.768177 -0.555570 -0.318190
v -0.653281 -0.707107 -0.270598
v -0.513279 -0.831470 -0.212607
v -0.353553 -0.923880 -0.146447
v -0.180240 -0.980785 -0.074658
v -0.162212 0.980785 -0.108386
v -0.318189 0.923880 -0.212607
v -0.461939 0.831470 -0.308658
v -0.587938 0.707107 -0.392847
v -0.691341 0.555570 -0.461940
v -0.768177 0.382683 -0.513280
v -0.815493 0.195090 -0.544895
v -0.831468 0.000000 -0.555570
v -0.815493 -0.195090 -0.544895
v -0.768177 -0.382683 -0.513280
v -0.691341 -0.555570 -0.461940
v -0.587938 -0.707107 -0.392847
v -0.461939 -0.831470 -0.308658
v -0.318189 -0.923880 -0.212607
v -0.162212 -0.980785 -0.108386
v -0.137950 0.980785 -0.137950
v -0.270598 0.923880 -0.270598
v -0.392847 0.831470 -0.392847
v -0.500000 0.707107 -0.500000
v -0.587937 0.555570 -0.587938
v -0.653281 0.382683 -0.653281
v -0.693519 0.195090 -0.693520
v -0.707106 0.000000 -0.707106
v -0.693519 -0.195090 -0.693520
v -0.653281 -0.382683 -0.653281
v -0.587937 -0.555570 -0.587938
v -0.500000 -0.707107 -0.500000
v -0.392847 -0.831470 -0.392847
v -0.270598 -0.923880 -0.270598
v -0.137950 -0.980785 -0.137950
v -0.108386 0.980785 -0.162212
v -0.212607 0.923880 -0.318190
v -0.308658 0.831470 -0.461939
v -0.392847 0.707107 -0.587938
v -0.461939 0.555570 -0.691341
v -0.513280 0.382683 -0.768177
v -0.544895 0.195090 -0.815493
v -0.555569 0.000000 -0.831469
v -0.544895 -0.195090 -0.815493
v -0.513280 -0.382683 -0.768177
v -0.461939 -0.555570 -0.691341
v -0.392847 -0.707107 -0.587938
v -0.308658 -0.831470 -0.461939
v -0.212607 -0.923880 -0.318190
v -0.108386 -0.980785 -0.162212
v -0.074658 0.980785 -0.180240
v -0.146446 0.923880 -0.353553
v -0.212607 0.831470 -0.513279
v -0.270598 0.707107 -0.653281
v -0.318189 0.555570 -0.768177
v -0.353553 0.382683 -0.853553
v -0.375330 0.195090 -0.906127
v -0.382683 0.000000 -0.923879
v -0.375330 -0.195090 -0.906127
v -0.353553 -0.382683 -0.853553
v -0.318189 -0.555570 -0.768177
v -0.270598 -0.707107 -0.653281
v -0.212607 -0.831470 -0.513279
v -0.146446 -0.923880 -0.353553
v -0.074658 -0.980785 -0.180240
v -0.038060 0.980785 -0.191342
v -0.074658 0.923880 -0.375330
v -0.108386 0.831470 -0.544895
v -0.137950 0.707107 -0.693520
v -0.162211 0.555570 -0.815493
v -0.180240 0.382683 -0.906127
v -0.191341 0.195090 -0.961939
v -0.195090 0.000000 -0.980784
v -0.191341 -0.195090 -0.961939
v -0.180240 -0.382683 -0.906127
v -0.162211 -0.555570 -0.815493
v -0.137950 -0.707107 -0.693520
v -0.108386 -0.831470 -0.544895
v -0.074658 -0.923880 -0.375330
v -0.038060 -0.980785 -0.191342
v 0.000000 0.980785 -0.195090
v 0.000000 0.923880 -0.382683
v 0.000000 0.707107 -0.707107
v 0.000000 0.382683 -0.923879
v 0.000000 -0.382683 -0.923879
v 0.000000 -0.707107 -0.707107
v 0.000000 -0.831470 -0.555570
v 0.000000 -0.923880 -0.382683
v 0.000000 -0.980785 -0.195090
vn -0.0000 1.0000 -0.0000
vn -0.0000 0.8286 -0.5598
vn -0.0000 0.5528 -0.8333
vn -0.0000 0.1939 -0.9810
vn -0.0000 -0.0000 -1.0000
vn -0.0000 -0.1939 -0.9810
vn -0.0000 -0.5528 -0.8333
vn -0.0000 -1.0000 -0.0000
vn 0.0392 0.9796 -0.1971
vn 0.0757 0.9217 -0.3804
vn 0.1092 0.8286 -0.5490
vn 0.1385 0.7041 -0.6965
vn 0.1626 0.5528 -0.8173
vn 0.1804 0.3805 -0.9070
vn 0.1914 0.1939 -0.9622
vn 0.1951 -0.0000 -0.9808
vn 0.1914 -0.1939 -0.9622
vn 0.1804 -0.3805 -0.9070
vn 0.1626 -0.5528 -0.8173
vn 0.1385 -0.7041 -0.6965
vn 0.1092 -0.8286 -0.5490
vn 0.0757 -0.9217 -0.3804
vn 0.0392 -0.9796 -0.1971
vn 0.0769 0.9796 -0.1857
vn 0.1484 0.9217 -0.3584
vn 0.2142 0.8286 -0.5172
vn 0.2718 0.7041 -0.6561
vn 0.3189 0.5528 -0.7699
vn 0.3539 0.3805 -0.8544
vn 0.3754 0.1939 -0.9063
vn 0.3827 -0.0000 -0.9239
vn 0.3754 -0.1939 -0.9063
vn 0.3539 -0.3805 -0.8544
vn 0.3189 -0.5528 -0.7699
vn 0.2718 -0.7041 -0.6561
vn 0.2142 -0.8286 -0.5172
vn 0.1484 -0.9217 -0.3584
vn 0.0769 -0.9796 -0.1857
vn 0.1117 0.9796 -0.1671
vn 0.2155 0.9217 -0.3225
vn 0.3110 0.8286 -0.4654
vn 0.3945 0.7041 -0.5905
vn 0.4630 0.5528 -0.6929
vn 0.5138 0.3805 -0.7689
vn 0.5450 0.1939 -0.8157
vn 0.5556 -0.0000 -0.8315
vn 0.5450 -0.1939 -0.8157
vn 0.5138 -0.3805 -0.7689
vn 0.4630 -0.5528 -0.6929
vn 0.3945 -0.7041 -0.5905
vn 0.3110 -0.8286 -0.4654
vn 0.2155 -0.9217 -0.3225
vn 0.1117 -0.9796 -0.1671
vn 0.1421 0.9796 -0.1421
vn 0.2743 0.9217 -0.2743
vn 0.3958 0.8286 -0.3958
vn 0.5021 0.7041 -0.5021
vn 0.5893 0.5528 -0.5893
vn 0.6539 0.3805 -0.6539
vn 0.6937 0.1939 -0.6937
vn 0.7071 -0.0000 -0.7071
vn 0.6937 -0.1939 -0.6937
vn 0.6539 -0.3805 -0.6539
vn 0.5893 -0.5528 -0.5893
vn 0.5021 -0.7041 -0.5021
vn 0.3958 -0.8286 -0.3958
vn 0.2743 -0.9217 -0.2743
vn 0.1421 -0.9796 -0.1421
vn 0.1671 0.9796 -0.1117
vn 0.3225 0.9217 -0.2155
vn 0.4654 0.8286 -0.3110
vn 0.5905 0.7041 -0.3945
vn 0.6929 0.5528 -0.4630
vn 0.7689 0.3805 -0.5138
vn 0.8157 0.1939 -0.5450
vn 0.8315 -0.0000 -0.5556
vn 0.8157 -0.1939 -0.5450
vn 0.7689 -0.3805 -0.5138
vn 0.6929 -0.5528 -0.4630
vn 0.5905 -0.7041 -0.3945
vn 0.4654 -0.8286 -0.3110
vn 0.3225 -0.9217 -0.2155
vn 0.1671 -0.9796 -0.1117
vn 0.1857 0.9796 -0.0769
vn 0.3584 0.9217 -0.1484
vn 0.5172 0.8286 -0.2142
vn 0.6561 0.7041 -0.2718
vn 0.7699 0.5528 -0.3189
vn 0.8544 0.3805 -0.3539
vn 0.9063 0.1939 -0.3754
vn 0.9239 -0.0000 -0.3827
vn 0.9063 -0.1939 -0.3754
vn 0.8544 -0.3805 -0.3539
vn 0.7699 -0.5528 -0.3189
vn 0.6561 -0.7041 -0.2718
vn 0.5172 -0.8286 -0.2142
vn 0.3584 -0.9217 -0.1484
vn 0.1857 -0.9796 -0.0769
vn 0.1971 0.9796 -0.0392
vn 0.3804 0.9217 -0.0757
vn 0.5490 0.8286 -0.1092
vn 0.6965 0.7041 -0.1385
vn 0.8173 0.5528 -0.1626
vn 0.9070 0.3805 -0.1804
vn 0.9622 0.1939 -0.1914
vn 0.9808 -0.0000 -0.1951
vn 0.9622 -0.1939 -0.1914
vn 0.9070 -0.3805 -0.1804
vn 0.8173 -0.5528 -0.1626
vn 0.6965 -0.7041 -0.1385
vn 0.5490 -0.8286 -0.1092
vn 0.3804 -0.9217 -0.0757
vn 0.1971 -0.9796 -0.0392
vn 0.2010 0.9796 -0.0000
vn 0.3879 0.9217 -0.0000
vn 0.5598 0.8286 -0.0000
vn 0.7101 0.7041 -0.0000
vn 0.8333 0.5528 -0.0000
vn 0.9248 0.3805 -0.0000
vn 0.9810 0.1939 -0.0000
vn 1.0000 -0.0000 -0.0000
vn 0.9810 -0.1939 -0.0000
vn 0.9248 -0.3805 -0.0000
vn 0.8333 -0.5528 -0.0000
vn 0.7101 -0.7041 -0.0000
vn 0.5598 -0.8286 -0.0000
vn 0.3879 -0.9217 -0.0000
vn 0.2010 -0.9796 -0.0000
vn 0.1971 0.9796 0.0392
vn 0.3804 0.9217 0.0757
vn 0.5490 0.8286 0.1092
vn 0.6965 0.7041 0.1385
vn 0.8173 0.5528 0.1626
vn 0.9070 0.3805 0.1804
vn 0.9622 0.1939 0.1914
vn 0.9808 -0.0000 0.1951
vn 0.9622 -0.1939 0.1914
vn 0.9070 -0.3805 0.1804
vn 0.8173 -0.5528 0.1626
vn 0.6965 -0.7041 0.1385
vn 0.5490 -0.8286 0.1092
vn 0.3804 -0.9217 0.0757
vn 0.1971 -0.9796 0.0392
vn 0.1857 0.9796 0.0769
vn 0.3584 0.9217 0.1484
vn 0.5172 0.8286 0.2142
vn 0.6561 0.7041 0.2718
vn 0.7699 0.5528 0.3189
vn 0.8544 0.3805 0.3539
vn 0.9063 0.1939 0.3754
vn 0.9239 -0.0000 0.3827
vn 0.9063 -0.1939 0.3754
vn 0.8544 -0.3805 0.3539
vn 0.7699 -0.5528 0.3189
vn 0.6561 -0.7041 0.2718
vn 0.5172 -0.8286 0.2142
vn 0.3584 -0.9217 0.1484
vn 0.1857 -0.9796 0.0769
vn 0.1671 0.9796 0.1117
vn 0.3225 0.9217 0.2155
vn 0.4654 0.8286 0.3110
vn 0.5905 0.7041 0.3945
vn 0.6929 0.5528 0.4630
vn 0.7689 0.3805 0.5138
vn 0.8157 0.1939 0.5450
vn 0.8315 -0.0000 0.5556
vn 0.8157 -0.1939 0.5450
vn 0.7689 -0.3805 0.5138
vn 0.6929 -0.5528 0.4630
vn 0.5905 -0.7041 0.3945
vn 0.4654 -0.8286 0.3110
vn 0.3225 -0.9217 0.2155
vn 0.1671 -0.9796 0.1117
vn 0.1421 0.9796 0.1421
vn 0.2743 0.9217 0.2743
vn 0.3958 0.8286 0.3958
vn 0.5021 0.7041 0.5021
vn 0.5893 0.5528 0.5893
vn 0.6539 0.3805 0.6539
vn 0.6937 0.1939 0.6937
vn 0.7071 -0.0000 0.7071
vn 0.6937 -0.1939 0.6937
vn 0.6539 -0.3805 0.6539
vn 0.5893 -0.5528 0.5893
vn 0.5021 -0.7041 0.5021
vn 0.3958 -0.8286 0.3958
vn 0.2743 -0.9217 0.2743
vn 0.1421 -0.9796 0.1421
vn 0.1117 0.9796 0.1671
vn 0.2155 0.9217 0.3225
vn 0.3110 0.8286 0.4654
vn 0.3945 0.7041 0.5905
vn 0.4630 0.5528 0.6929
vn 0.5138 0.3805 0.7689
vn 0.5450 0.1939 0.8157
vn 0.5556 -0.0000 0.8315
vn 0.5450 -0.1939 0.8157
vn 0.5138 -0.3805 0.7689
vn 0.4630 -0.5528 0.6929
vn 0.3945 -0.7041 0.5905
vn 0.3110 -0.8286 0.4654
vn 0.2155 -0.9217 0.3225
vn 0.1117 -0.9796 0.1671
vn 0.0769 0.9796 0.1857
vn 0.1484 0.9217 0.3584
vn 0.2142 0.8286 0.5172
vn 0.2718 0.7041 0.6561
vn 0.3189 0.5528 0.7699
vn 0.3539 0.3805 0.8544
vn 0.3754 0.1939 0.9063
vn 0.3827 -0.0000 0.9239
vn 0.3754 -0.1939 0.9063
vn 0.3539 -0.3805 0.8544
vn 0.3189 -0.5528 0.7699
vn 0.2718 -0.7041 0.6561
vn 0.2142 -0.8286 0.5172
vn 0.1484 -0.9217 0.3584
vn 0.0769 -0.9796 0.1857
vn 0.0392 0.9796 0.1971
vn 0.0757 0.9217 0.3804
vn 0.1092 0.8286 0.5490
vn 0.1385 0.7041 0.6965
vn 0.1626 0.5528 0.8173
vn 0.1804 0.3805 0.9070
vn 0.1914 0.1939 0.9622
vn 0.1951 -0.0000 0.9808
vn 0.1914 -0.1939 0.9622
vn 0.1804 -0.3805 0.9070
vn 0.1626 -0.5528 0.8173
vn 0.1385 -0.7041 0.6965
vn 0.1092 -0.8286 0.5490
vn 0.0757 -0.9217 0.3804
vn 0.0392 -0.9796 0.1971
vn -0.0000 0.9796 0.2010
vn -0.0000 0.9217 0.3879
vn -0.0000 0.8286 0.5598
vn -0.0000 0.7041 0.7101
vn -0.0000 0.5528 0.8333
vn -0.0000 0.3805 0.9248
vn -0.0000 0.1939 0.9810
vn -0.0000 -0.0000 1.0000
vn -0.0000 -0.1939 0.9810
vn -0.0000 -0.3805 0.9248
vn -0.0000 -0.5528 0.8333
vn -0.0000 -0.7041 0.7101
vn -0.0000 -0.8286 0.5598
vn -0.0000 -0.9217 0.3879
vn -0.0000 -0.9796 0.2010
vn -0.0392 0.9796 0.1971
vn -0.0757 0.9217 0.3804
vn -0.1092 0.8286 0.5490
vn -0.1385 0.7041 0.6965
vn -0.1626 0.5528 0.8173
vn -0.1804 0.3805 0.9070
vn -0.1914 0.1939 0.9622
vn -0.1951 -0.0000 0.9808
vn -0.1914 -0.1939 0.9622
vn -0.1804 -0.3805 0.9070
vn -0.1626 -0.5528 0.8173
vn -0.1385 -0.7041 0.6965
vn -0.1092 -0.8286 0.5490
vn -0.0757 -0.9217 0.3804
vn -0.0392 -0.9796 0.1971
vn -0.0769 0.9796 0.1857
vn -0.1484 0.9217 0.3584
vn -0.2142 0.8286 0.5172
vn -0.2718 0.7041 0.6561
vn -0.3189 0.5528 0.7699
vn -0.3539 0.3805 0.8544
vn -0.3754 0.1939 0.9063
vn -0.3827 -0.0000 0.9239
vn -0.3754 -0.1939 0.9063
vn -0.3539 -0.3805 0.8544
vn -0.3189 -0.5528 0.7699
vn -0.2718 -0.7041 0.6561
vn -0.2142 -0.8286 0.5172
vn -0.1484 -0.9217 0.3584
vn -0.0769 -0.9796 0.1857
vn -0.1117 0.9796 0.1671
vn -0.2155 0.9217 0.3225
vn -0.3110 0.8286 0.4654
vn -0.3945 0.7041 0.5905
vn -0.4630 0.5528 0.6929
vn -0.5138 0.3805 0.7689
vn -0.5450 0.1939 0.8157
vn -0.5556 -0.0000 0.8315
vn -0.5450 -0.1939 0.8157
vn -0.5138 -0.3805 0.7689
vn -0.4630 -0.5528 0.6929
vn -0.3945 -0.7041 0.5905
vn -0.3110 -0.8286 0.4654
vn -0.2155 -0.9217 0.3225
vn -0.1117 -0.9796 0.1671
vn -0.1421 0.9796 0.1421
vn -0.2743 0.9217 0.2743
vn -0.3958 0.8286 0.3958
vn -0.5021 0.7041 0.5021
vn -0.5893 0.5528 0.5893
vn -0.6539 0.3805 0.6539
vn -0.6937 0.1939 0.6937
vn -0.7071 -0.0000 0.7071
vn -0.6937 -0.1939 0.6937
vn -0.6539 -0.3805 0.6539
vn -0.5893 -0.5528 0.5893
vn -0.5021 -0.7041 0.5021
vn -0.3958 -0.8286 0.3958
vn -0.2743 -0.9217 0.2743
vn -0.1421 -0.9796 0.1421
vn -0.1671 0.9796 0.1117
vn -0.3225 0.9217 0.2155
vn -0.4654 0.8286 0.3110
vn -0.5905 0.7041 0.3945
vn -0.6929 0.5528 0.4630
vn -0.7689 0.3805 0.5138
vn -0.8157 0.1939 0.5450
vn -0.8315 -0.0000 0.5556
vn -0.8157 -0.1939 0.5450
vn -0.7689 -0.3805 0.5138
vn -0.6929 -0.5528 0.4630
vn -0.5905 -0.7041 0.3945
vn -0.4654 -0.8286 0.3110
vn -0.3225 -0.9217 0.2155
vn -0.1671 -0.9796 0.1117
vn -0.1857 0.9796 0.0769
vn -0.3584 0.9217 0.1484
vn -0.5172 0.8286 0.2142
vn -0.6561 0.7041 0.2718
vn -0.7699 0.5528 0.3189
vn -0.8544 0.3805 0.3539
vn -0.9063 0.1939 0.3754
vn -0.9239 -0.0000 0.3827
vn -0.9063 -0.1939 0.3754
vn -0.8544 -0.3805 0.3539
vn -0.7699 -0.5528 0.3189
vn -0.6561 -0.7041 0.2718
vn -0.5172 -0.8286 0.2142
vn -0.3584 -0.9217 0.1484
vn -0.1857 -0.9796 0.0769
vn -0.1971 0.9796 0.0392
vn -0.3804 0.9217 0.0757
vn -0.5490 0.8286 0.1092
vn -0.6965 0.7041 0.1385
vn -0.8173 0.5528 0.1626
vn -0.9070 0.3805 0.1804
vn -0.9622 0.1939 0.1914
vn -0.9808 -0.0000 0.1951
vn -0.9622 -0.1939 0.1914
vn -0.9070 -0.3805 0.1804
vn -0.8173 -0.5528 0.1626
vn -0.6965 -0.7041 0.1385
vn -0.5490 -0.8286 0.1092
vn -0.3804 -0.9217 0.0757
vn -0.1971 -0.9796 0.0392
vn -0.2010 0.9796 -0.0000
vn -0.3879 0.9217 -0.0000
vn -0.5598 0.8286 -0.0000
vn -0.7101 0.7041 -0.0000
vn -0.8333 0.5528 -0.0000
vn -0.9248 0.3805 -0.0000
vn -0.9810 0.1939 -0.0000
vn -1.0000 -0.0000 -0.0000
vn -0.9810 -0.1939 -0.0000
vn -0.9248 -0.3805 -0.0000
vn -0.8333 -0.5528 -0.0000
vn -0.7101 -0.7041 -0.0000
vn -0.5598 -0.8286 -0.0000
vn -0.3879 -0.9217 -0.0000
vn -0.2010 -0.9796 -0.0000
vn -0.1971 0.9796 -0.0392
vn -0.3804 0.9217 -0.0757
vn -0.5490 0.8286 -0.1092
vn -0.6965 0.7041 -0.1385
vn -0.8173 0.5528 -0.1626
vn -0.9070 0.3805 -0.1804
vn -0.9622 0.1939 -0.1914
vn -0.9808 -0.0000 -0.1951
vn -0.9622 -0.1939 -0.1914
vn -0.9070 -0.3805 -0.1804
vn -0.8173 -0.5528 -0.1626
vn -0.6965 -0.7041 -0.1385
vn -0.5490 -0.8286 -0.1092
vn -0.3804 -0.9217 -0.0757
vn -0.1971 -0.9796 -0.0392
vn -0.1857 0.9796 -0.0769
vn -0.3584 0.9217 -0.1484
vn -0.5172 0.8286 -0.2142
vn -0.6561 0.7041 -0.2718
vn -0.7699 0.5528 -0.3189
vn -0.8544 0.3805 -0.3539
vn -0.9063 0.1939 -0.3754
vn -0.9239 -0.0000 -0.3827
vn -0.9063 -0.1939 -0.3754
vn -0.8544 -0.3805 -0.3539
vn -0.7699 -0.5528 -0.3189
vn -0.6561 -0.7041 -0.2718
vn -0.5172 -0.8286 -0.2142
vn -0.3584 -0.9217 -0.1484
vn -0.1857 -0.9796 -0.0769
vn -0.1671 0.9796 -0.1117
vn -0.3225 0.9217 -0.2155
vn -0.4654 0.8286 -0.3110
vn -0.5905 0.7041 -0.3945
vn -0.6929 0.5528 -0.4630
vn -0.7689 0.3805 -0.5138
vn -0.8157 0.1939 -0.5450
vn -0.8315 -0.0000 -0.5556
vn -0.8157 -0.1939 -0.5450
vn -0.7689 -0.3805 -0.5138
vn -0.6929 -0.5528 -0.4630
vn -0.5905 -0.7041 -0.3945
vn -0.4654 -0.8286 -0.3110
vn -0.3225 -0.9217 -0.2155
vn -0.1671 -0.9796 -0.1117
vn -0.1421 0.9796 -0.1421
vn -0.2743 0.9217 -0.2743
vn -0.3958 0.8286 -0.3958
vn -0.5021 0.7041 -0.5021
vn -0.5893 0.5528 -0.5893
vn -0.6539 0.3805 -0.6539
vn -0.6937 0.1939 -0.6937
vn -0.7071 -0.0000 -0.7071
vn -0.6937 -0.1939 -0.6937
vn -0.6539 -0.3805 -0.6539
vn -0.5893 -0.5528 -0.5893
vn -0.5021 -0.7041 -0.5021
vn -0.3958 -0.8286 -0.3958
vn -0.2743 -0.9217 -0.2743
vn -0.1421 -0.9796 -0.1421
vn -0.1117 0.9796 -0.1671
vn -0.2155 0.9217 -0.3225
vn -0.3110 0.8286 -0.4654
vn -0.3945 0.7041 -0.5905
vn -0.4630 0.5528 -0.6929
vn -0.5138 0.3805 -0.7689
vn -0.5450 0.1939 -0.8157
vn -0.5556 -0.0000 -0.8315
vn -0.5450 -0.1939 -0.8157
vn -0.5138 -0.3805 -0.7689
vn -0.4630 -0.5528 -0.6929
vn -0.3945 -0.7041 -0.5905
vn -0.3110 -0.8286 -0.4654
vn -0.2155 -0.9217 -0.3225
vn -0.1117 -0.9796 -0.1671
vn -0.0769 0.9796 -0.1857
vn -0.1484 0.9217 -0.3584
vn -0.2142 0.8286 -0.5172
vn -0.2718 0.7041 -0.6561
vn -0.3189 0.5528 -0.7699
vn -0.3539 0.3805 -0.8544
vn -0.3754 0.1939 -0.9063
vn -0.3827 -0.0000 -0.9239
vn -0.3754 -0.1939 -0.9063
vn -0.3539 -0.3805 -0.8544
vn -0.3189 -0.5528 -0.7699
vn -0.2718 -0.7041 -0.6561
vn -0.2142 -0.8286 -0.5172
vn -0.1484 -0.9217 -0.3584
vn -0.0769 -0.9796 -0.1857
vn -0.0392 0.9796 -0.1971
vn -0.0757 0.9217 -0.3804
vn -0.1092 0.8286 -0.5490
vn -0.1385 0.7041 -0.6965
vn -0.1626 0.5528 -0.8173
vn -0.1804 0.3805 -0.9070
vn -0.1914 0.1939 -0.9622
vn -0.1951 -0.0000 -0.9808
vn -0.1914 -0.1939 -0.9622
vn -0.1804 -0.3805 -0.9070
vn -0.1626 -0.5528 -0.8173
vn -0.1385 -0.7041 -0.6965
vn -0.1092 -0.8286 -0.5490
vn -0.0757 -0.9217 -0.3804
vn -0.0392 -0.9796 -0.1971
vn -0.0000 0.9796 -0.2010
vn -0.0000 0.9217 -0.3879
vn -0.0000 0.7041 -0.7101
vn -0.0000 0.3805 -0.9248
vn -0.0000 -0.3805 -0.9248
vn -0.0000 -0.7041 -0.7101
vn -0.0000 -0.8286 -0.5598
vn -0.0000 -0.9217 -0.3879
vn -0.0000 -0.9796 -0.2010
vt 0.816603 0.052526
vt 0.717067 0.097266
vt 0.679935 0.085859
vt 0.800515 0.041291
vt 0.641189 0.460706
vt 0.636537 0.522512
vt 0.606120 0.514205
vt 0.609937 0.452170
vt 0.571495 0.887666
vt 0.500000 0.938260
vt 0.555545 0.882986
vt 1.000000 0.061740
vt 0.646073 0.398935
vt 0.613990 0.390164
vt 0.597671 0.829184
vt 0.575467 0.822957
vt 0.651632 0.337264
vt 0.618660 0.328234
vt 0.611245 0.768731
vt 0.585967 0.761745
vt 0.658562 0.275801
vt 0.624578 0.266457
vt 0.619969 0.707539
vt 0.592818 0.700083
vt 0.668241 0.214753
vt 0.633037 0.204992
vt 0.626431 0.646005
vt 0.597957 0.638210
vt 0.684053 0.154645
vt 0.647397 0.144262
vt 0.631753 0.584299
vt 0.602235 0.576231
vt 0.607836 0.135614
vt 0.636634 0.075765
vt 0.572766 0.569946
vt 0.575627 0.507704
vt 0.783943 0.029673
vt 0.578460 0.445459
vt 0.539565 0.879441
vt 0.581494 0.383232
vt 0.553546 0.818212
vt 0.585028 0.321051
vt 0.561001 0.756385
vt 0.589568 0.258960
vt 0.565918 0.694329
vt 0.596188 0.197058
vt 0.569641 0.632165
vt 0.531807 0.815023
vt 0.536237 0.752767
vt 0.550851 0.316070
vt 0.553696 0.253726
vt 0.539180 0.690429
vt 0.557907 0.191458
vt 0.541421 0.628052
vt 0.565528 0.129378
vt 0.543314 0.565656
vt 0.585916 0.068008
vt 0.545055 0.503251
vt 0.765819 0.017782
vt 0.546790 0.440847
vt 0.523561 0.877069
vt 0.548658 0.378449
vt 0.513864 0.563506
vt 0.514427 0.501016
vt 0.528401 0.063765
vt 0.736165 0.005754
vt 0.514990 0.438527
vt 0.507542 0.875894
vt 0.515598 0.376037
vt 0.510170 0.813441
vt 0.516315 0.313550
vt 0.511587 0.750966
vt 0.517249 0.251067
vt 0.512531 0.688483
vt 0.518644 0.188592
vt 0.513253 0.625996
vt 0.521207 0.126137
vt 0.481658 0.313627
vt 0.480608 0.251148
vt 0.486972 0.751020
vt 0.485910 0.688542
vt 0.479042 0.188679
vt 0.485099 0.626058
vt 0.476165 0.126236
vt 0.484413 0.563572
vt 0.468102 0.063898
vt 0.483779 0.501084
vt 0.260630 0.006456
vt 0.483147 0.438597
vt 0.491519 0.875929
vt 0.000000 0.061740
vt 0.482463 0.376111
vt 0.488565 0.813489
vt 0.410909 0.068377
vt 0.233022 0.018483
vt 0.453154 0.503452
vt 0.451353 0.441055
vt 0.475502 0.877175
vt 0.449412 0.378666
vt 0.466924 0.815166
vt 0.447137 0.316295
vt 0.462317 0.752929
vt 0.444186 0.253964
vt 0.459258 0.690604
vt 0.439821 0.191713
vt 0.456929 0.628237
vt 0.431931 0.129665
vt 0.454963 0.565849
vt 0.437545 0.756652
vt 0.432513 0.694616
vt 0.408357 0.259340
vt 0.401613 0.197462
vt 0.428705 0.632466
vt 0.389770 0.136060
vt 0.425510 0.570261
vt 0.360636 0.076303
vt 0.422586 0.508030
vt 0.215062 0.030361
vt 0.419692 0.445796
vt 0.459499 0.879617
vt 0.416594 0.383581
vt 0.445177 0.818447
vt 0.412987 0.321413
vt 0.392098 0.514644
vt 0.388227 0.452622
vt 0.443520 0.883229
vt 0.198534 0.041960
vt 0.384121 0.390630
vt 0.423242 0.823281
vt 0.379391 0.328715
vt 0.412563 0.762110
vt 0.373404 0.266957
vt 0.405601 0.700474
vt 0.364857 0.205518
vt 0.400382 0.638620
vt 0.350378 0.144828
vt 0.396039 0.576657
vt 0.317737 0.086499
vt 0.339483 0.276395
vt 0.329751 0.215369
vt 0.378432 0.708024
vt 0.371895 0.646510
vt 0.313888 0.155292
vt 0.366517 0.584820
vt 0.280916 0.097956
vt 0.361685 0.523048
vt 0.182462 0.053170
vt 0.356990 0.461255
vt 0.427572 0.887974
vt 0.352062 0.399497
vt 0.401018 0.829592
vt 0.346460 0.337841
vt 0.387263 0.769187
vt 0.166571 0.063882
vt 0.325974 0.471351
vt 0.320437 0.409802
vt 0.411659 0.893801
vt 0.378372 0.837280
vt 0.314230 0.348369
vt 0.361508 0.777727
vt 0.306635 0.287178
vt 0.350893 0.717064
vt 0.296295 0.226467
vt 0.343162 0.655896
vt 0.280062 0.166801
vt 0.336887 0.594476
vt 0.248604 0.109933
vt 0.331320 0.532932
vt 0.264354 0.238278
vt 0.248501 0.178781
vt 0.314076 0.666487
vt 0.307072 0.605295
vt 0.219514 0.121901
vt 0.300947 0.543937
vt 0.150750 0.073994
vt 0.295145 0.482519
vt 0.395784 0.900649
vt 0.289217 0.421124
vt 0.355126 0.846217
vt 0.282673 0.359845
vt 0.335123 0.787533
vt 0.274810 0.298815
vt 0.322845 0.727345
vt 0.379943 0.908449
vt 0.331039 0.856249
vt 0.258340 0.433018
vt 0.251715 0.371803
vt 0.307888 0.798369
vt 0.243893 0.310822
vt 0.294118 0.738571
vt 0.233724 0.250306
vt 0.284510 0.677943
vt 0.218775 0.190745
vt 0.276976 0.616906
vt 0.192708 0.133476
vt 0.270490 0.555664
vt 0.134946 0.083409
vt 0.264436 0.494337
vt 0.254320 0.689882
vt 0.246488 0.628902
vt 0.190489 0.202289
vt 0.167522 0.144365
vt 0.239861 0.567686
vt 0.119131 0.092032
vt 0.233768 0.506365
vt 0.364128 0.917121
vt 0.227723 0.445035
vt 0.305773 0.867185
vt 0.221253 0.383788
vt 0.279529 0.809946
vt 0.213744 0.322744
vt 0.264515 0.750396
vt 0.204178 0.262106
vt 0.197274 0.456730
vt 0.191176 0.395364
vt 0.278854 0.878791
vt 0.249706 0.821924
vt 0.184209 0.334160
vt 0.233814 0.762424
vt 0.175496 0.273285
vt 0.223354 0.701881
vt 0.163312 0.213071
vt 0.215497 0.640844
vt 0.143493 0.154337
vt 0.208966 0.579559
vt 0.103288 0.099778
vt 0.203055 0.518157
vt 0.348324 0.926579
vt 0.136969 0.222810
vt 0.120288 0.163205
vt 0.183903 0.652277
vt 0.177724 0.590833
vt 0.087410 0.106569
vt 0.172216 0.529274
vt 0.332501 0.936729
vt 0.166904 0.467680
vt 0.249605 0.890772
vt 0.161375 0.406124
vt 0.218025 0.833891
vt 0.155147 0.344689
vt 0.201791 0.774207
vt 0.147483 0.283502
vt 0.191471 0.713481
vt 0.217067 0.902734
vt 0.184053 0.845355
vt 0.131753 0.415701
vt 0.126431 0.353995
vt 0.168241 0.785247
vt 0.119969 0.292461
vt 0.158562 0.724199
vt 0.111245 0.231269
vt 0.151632 0.662736
vt 0.097671 0.170816
vt 0.146073 0.601065
vt 0.071495 0.112334
vt 0.141189 0.539294
vt 0.316603 0.947474
vt 0.136537 0.477488
vt 0.118660 0.671766
vt 0.113990 0.609836
vt 0.075467 0.177043
vt 0.055545 0.117014
vt 0.109937 0.547830
vt 0.300515 0.958709
vt 0.106120 0.485795
vt 0.179935 0.914141
vt 0.102235 0.423768
vt 0.147397 0.855738
vt 0.097957 0.361790
vt 0.133037 0.795008
vt 0.092818 0.299917
vt 0.124578 0.733543
vt 0.085967 0.238255
vt 0.072766 0.430054
vt 0.069641 0.367835
vt 0.107835 0.864386
vt 0.096188 0.802942
vt 0.065918 0.305671
vt 0.089568 0.741040
vt 0.061001 0.243614
vt 0.085028 0.678949
vt 0.053545 0.181788
vt 0.081494 0.616768
vt 0.039565 0.120559
vt 0.078460 0.554541
vt 0.283943 0.970327
vt 0.075627 0.492296
vt 0.136633 0.924235
vt 0.031807 0.184977
vt 0.023561 0.122931
vt 0.048658 0.621551
vt 0.046789 0.559153
vt 0.265819 0.982218
vt 0.045055 0.496749
vt 0.085916 0.931992
vt 0.043314 0.434344
vt 0.065528 0.870622
vt 0.041421 0.371948
vt 0.057907 0.808542
vt 0.039180 0.309571
vt 0.053696 0.746274
vt 0.036237 0.247233
vt 0.050851 0.683930
vt 0.013253 0.374004
vt 0.012531 0.311517
vt 0.018644 0.811408
vt 0.017249 0.748933
vt 0.011587 0.249034
vt 0.016315 0.686450
vt 0.010170 0.186559
vt 0.015598 0.623963
vt 0.007542 0.124106
vt 0.014990 0.561473
vt 0.236165 0.994246
vt 0.014427 0.498983
vt 0.028401 0.936235
vt 0.013864 0.436493
vt 0.021207 0.873863
vt 0.760630 0.993544
vt 1.007542 0.124106
vt 0.991519 0.124071
vt 1.014427 0.498983
vt 1.014990 0.561473
vt 0.983147 0.561403
vt 0.983779 0.498916
vt 1.028401 0.936235
vt 1.236165 0.994246
vt 0.968102 0.936102
vt 1.013864 0.436493
vt 0.984413 0.436428
vt 1.021207 0.873863
vt 0.976165 0.873764
vt 1.013253 0.374004
vt 0.985099 0.373942
vt 1.018644 0.811408
vt 0.979042 0.811321
vt 1.012531 0.311517
vt 0.985910 0.311458
vt 1.017249 0.748933
vt 0.980608 0.748852
vt 1.011587 0.249034
vt 0.986972 0.248979
vt 1.016315 0.686450
vt 0.981658 0.686373
vt 1.010170 0.186559
vt 0.988565 0.186511
vt 1.015598 0.623963
vt 0.982463 0.623889
vt 0.939821 0.808287
vt 0.944186 0.746036
vt 0.959258 0.309396
vt 0.962317 0.247071
vt 0.947137 0.683705
vt 0.966924 0.184834
vt 0.949412 0.621334
vt 0.975502 0.122825
vt 0.951353 0.558945
vt 0.733022 0.981517
vt 0.953154 0.496548
vt 0.910909 0.931623
vt 0.954963 0.434151
vt 0.931931 0.870335
vt 0.956929 0.371763
vt 0.919692 0.554204
vt 0.922586 0.491970
vt 0.715062 0.969639
vt 0.860636 0.923697
vt 0.925510 0.429739
vt 0.889770 0.863940
vt 0.928705 0.367533
vt 0.901613 0.802538
vt 0.932513 0.305384
vt 0.908357 0.740660
vt 0.937545 0.243348
vt 0.912987 0.678587
vt 0.945177 0.181553
vt 0.916594 0.616419
vt 0.959499 0.120383
vt 0.905601 0.299526
vt 0.912563 0.237890
vt 0.873404 0.733043
vt 0.879391 0.671285
vt 0.923242 0.176719
vt 0.884121 0.609370
vt 0.943520 0.116771
vt 0.888227 0.547378
vt 0.698534 0.958040
vt 0.892098 0.485356
vt 0.817738 0.913501
vt 0.896039 0.423343
vt 0.850378 0.855172
vt 0.900382 0.361380
vt 0.864857 0.794482
vt 0.682462 0.946830
vt 0.780916 0.902044
vt 0.861685 0.476952
vt 0.866517 0.415179
vt 0.813888 0.844708
vt 0.871895 0.353490
vt 0.829751 0.784631
vt 0.878432 0.291976
vt 0.839483 0.723605
vt 0.887263 0.230813
vt 0.846460 0.662159
vt 0.901018 0.170408
vt 0.852063 0.600503
vt 0.927572 0.112026
vt 0.856989 0.538745
vt 0.806635 0.712822
vt 0.814230 0.651631
vt 0.861508 0.222273
vt 0.878372 0.162720
vt 0.820437 0.590198
vt 0.911659 0.106199
vt 0.825974 0.528649
vt 0.666571 0.936118
vt 0.831320 0.467068
vt 0.748604 0.890067
vt 0.836887 0.405524
vt 0.780062 0.833199
vt 0.843162 0.344104
vt 0.796295 0.773533
vt 0.850893 0.282936
vt 0.800947 0.456063
vt 0.807072 0.394705
vt 0.719514 0.878099
vt 0.748501 0.821219
vt 0.814076 0.333513
vt 0.764354 0.761722
vt 0.822845 0.272655
vt 0.774810 0.701185
vt 0.835123 0.212467
vt 0.782673 0.640155
vt 0.855126 0.153783
vt 0.789217 0.578876
vt 0.895784 0.099351
vt 0.795145 0.517481
vt 0.650750 0.926006
vt 0.807889 0.201631
vt 0.831039 0.143751
vt 0.751715 0.628197
vt 0.758340 0.566982
vt 0.879943 0.091551
vt 0.764436 0.505663
vt 0.634946 0.916591
vt 0.770490 0.444336
vt 0.692708 0.866524
vt 0.776976 0.383094
vt 0.718775 0.809255
vt 0.784510 0.322057
vt 0.733724 0.749694
vt 0.794119 0.261429
vt 0.743893 0.689178
vt 0.746488 0.371098
vt 0.754320 0.310118
vt 0.690489 0.797711
vt 0.704178 0.737894
vt 0.764515 0.249604
vt 0.713744 0.677256
vt 0.779529 0.190053
vt 0.721253 0.616212
vt 0.805773 0.132815
vt 0.727723 0.554965
vt 0.864128 0.082879
vt 0.733768 0.493635
vt 0.619131 0.907968
vt 0.739861 0.432314
vt 0.667522 0.855635
vt 0.778854 0.121209
vt 0.848324 0.073421
vt 0.697274 0.543270
vt 0.703055 0.481843
vt 0.603288 0.900222
vt 0.708966 0.420441
vt 0.643493 0.845663
vt 0.715497 0.359155
vt 0.663312 0.786929
vt 0.723354 0.298119
vt 0.675496 0.726715
vt 0.733814 0.237576
vt 0.684209 0.665840
vt 0.749706 0.178076
vt 0.691176 0.604636
vt 0.636969 0.777190
vt 0.647483 0.716498
vt 0.691471 0.286519
vt 0.701791 0.225793
vt 0.655147 0.655311
vt 0.718025 0.166109
vt 0.661375 0.593876
vt 0.749605 0.109228
vt 0.666903 0.532320
vt 0.832501 0.063271
vt 0.672216 0.470726
vt 0.587410 0.893431
vt 0.677724 0.409167
vt 0.620288 0.836795
vt 0.683903 0.347723
s 1
usemtl Material.001
f 482/1/482 481/2/481 22/3/22 23/4/23
f 5/5/5 4/6/4 15/7/15 16/8/16
f 474/9/474 1/10/1 9/11/9
f 8/12/8 482/1/482 23/4/23
f 6/13/6 5/5/5 16/8/16 17/14/17
f 475/15/475 474/9/474 9/11/9 10/16/10
f 478/17/478 6/13/6 17/14/17 18/18/18
f 2/19/2 475/15/475 10/16/10 11/20/11
f 7/21/7 478/17/478 18/18/18 19/22/19
f 476/23/476 2/19/2 11/20/11 12/24/12
f 479/25/479 7/21/7 19/22/19 20/26/20
f 3/27/3 476/23/476 12/24/12 13/28/13
f 480/29/480 479/25/479 20/26/20 21/30/21
f 477/31/477 3/27/3 13/28/13 14/32/14
f 481/2/481 480/29/480 21/30/21 22/3/22
f 4/6/4 477/31/477 14/32/14 15/7/15
f 22/3/22 21/30/21 36/33/36 37/34/37
f 15/7/15 14/32/14 29/35/29 30/36/30
f 23/4/23 22/3/22 37/34/37 38/37/38
f 16/8/16 15/7/15 30/36/30 31/38/31
f 9/11/9 1/10/1 24/39/24
f 8/12/8 23/4/23 38/37/38
f 17/14/17 16/8/16 31/38/31 32/40/32
f 10/16/10 9/11/9 24/39/24 25/41/25
f 18/18/18 17/14/17 32/40/32 33/42/33
f 11/20/11 10/16/10 25/41/25 26/43/26
f 19/22/19 18/18/18 33/42/33 34/44/34
f 12/24/12 11/20/11 26/43/26 27/45/27
f 20/26/20 19/22/19 34/44/34 35/46/35
f 13/28/13 12/24/12 27/45/27 28/47/28
f 21/30/21 20/26/20 35/46/35 36/33/36
f 14/32/14 13/28/13 28/47/28 29/35/29
f 26/43/26 25/41/25 40/48/40 41/49/41
f 34/44/34 33/42/33 48/50/48 49/51/49
f 27/45/27 26/43/26 41/49/41 42/52/42
f 35/46/35 34/44/34 49/51/49 50/53/50
f 28/47/28 27/45/27 42/52/42 43/54/43
f 36/33/36 35/46/35 50/53/50 51/55/51
f 29/35/29 28/47/28 43/54/43 44/56/44
f 37/34/37 36/33/36 51/55/51 52/57/52
f 30/36/30 29/35/29 44/56/44 45/58/45
f 38/37/38 37/34/37 52/57/52 53/59/53
f 31/38/31 30/36/30 45/58/45 46/60/46
f 24/39/24 1/10/1 39/61/39
f 8/12/8 38/37/38 53/59/53
f 32/40/32 31/38/31 46/60/46 47/62/47
f 25/41/25 24/39/24 39/61/39 40/48/40
f 33/42/33 32/40/32 47/62/47 48/50/48
f 45/58/45 44/56/44 59/63/59 60/64/60
f 53/59/53 52/57/52 67/65/67 68/66/68
f 46/60/46 45/58/45 60/64/60 61/67/61
f 39/61/39 1/10/1 54/68/54
f 8/12/8 53/59/53 68/66/68
f 47/62/47 46/60/46 61/67/61 62/69/62
f 40/48/40 39/61/39 54/68/54 55/70/55
f 48/50/48 47/62/47 62/69/62 63/71/63
f 41/49/41 40/48/40 55/70/55 56/72/56
f 49/51/49 48/50/48 63/71/63 64/73/64
f 42/52/42 41/49/41 56/72/56 57/74/57
f 50/53/50 49/51/49 64/73/64 65/75/65
f 43/54/43 42/52/42 57/74/57 58/76/58
f 51/55/51 50/53/50 65/75/65 66/77/66
f 44/56/44 43/54/43 58/76/58 59/63/59
f 52/57/52 51/55/51 66/77/66 67/65/67
f 64/73/64 63/71/63 78/78/78 79/79/79
f 57/74/57 56/72/56 71/80/71 72/81/72
f 65/75/65 64/73/64 79/79/79 80/82/80
f 58/76/58 57/74/57 72/81/72 73/83/73
f 66/77/66 65/75/65 80/82/80 81/84/81
f 59/63/59 58/76/58 73/83/73 74/85/74
f 67/65/67 66/77/66 81/84/81 82/86/82
f 60/64/60 59/63/59 74/85/74 75/87/75
f 68/66/68 67/65/67 82/86/82 83/88/83
f 61/67/61 60/64/60 75/87/75 76/89/76
f 54/68/54 1/10/1 69/90/69
f 8/91/8 68/66/68 83/88/83
f 62/69/62 61/67/61 76/89/76 77/92/77
f 55/70/55 54/68/54 69/90/69 70/93/70
f 63/71/63 62/69/62 77/92/77 78/78/78
f 56/72/56 55/70/55 70/93/70 71/80/71
f 83/88/83 82/86/82 97/94/97 98/95/98
f 76/89/76 75/87/75 90/96/90 91/97/91
f 69/90/69 1/10/1 84/98/84
f 8/91/8 83/88/83 98/95/98
f 77/92/77 76/89/76 91/97/91 92/99/92
f 70/93/70 69/90/69 84/98/84 85/100/85
f 78/78/78 77/92/77 92/99/92 93/101/93
f 71/80/71 70/93/70 85/100/85 86/102/86
f 79/79/79 78/78/78 93/101/93 94/103/94
f 72/81/72 71/80/71 86/102/86 87/104/87
f 80/82/80 79/79/79 94/103/94 95/105/95
f 73/83/73 72/81/72 87/104/87 88/106/88
f 81/84/81 80/82/80 95/105/95 96/107/96
f 74/85/74 73/83/73 88/106/88 89/108/89
f 82/86/82 81/84/81 96/107/96 97/94/97
f 75/87/75 74/85/74 89/108/89 90/96/90
f 87/104/87 86/102/86 101/109/101 102/110/102
f 95/105/95 94/103/94 109/111/109 110/112/110
f 88/106/88 87/104/87 102/110/102 103/113/103
f 96/107/96 95/105/95 110/112/110 111/114/111
f 89/108/89 88/106/88 103/113/103 104/115/104
f 97/94/97 96/107/96 111/114/111 112/116/112
f 90/96/90 89/108/89 104/115/104 105/117/105
f 98/95/98 97/94/97 112/116/112 113/118/113
f 91/97/91 90/96/90 105/117/105 106/119/106
f 84/98/84 1/10/1 99/120/99
f 8/91/8 98/95/98 113/118/113
f 92/99/92 91/97/91 106/119/106 107/121/107
f 85/100/85 84/98/84 99/120/99 100/122/100
f 93/101/93 92/99/92 107/121/107 108/123/108
f 86/102/86 85/100/85 100/122/100 101/109/101
f 94/103/94 93/101/93 108/123/108 109/111/109
f 106/119/106 105/117/105 120/124/120 121/125/121
f 99/120/99 1/10/1 114/126/114
f 8/91/8 113/118/113 128/127/128
f 107/121/107 106/119/106 121/125/121 122/128/122
f 100/122/100 99/120/99 114/126/114 115/129/115
f 108/123/108 107/121/107 122/128/122 123/130/123
f 101/109/101 100/122/100 115/129/115 116/131/116
f 109/111/109 108/123/108 123/130/123 124/132/124
f 102/110/102 101/109/101 116/131/116 117/133/117
f 110/112/110 109/111/109 124/132/124 125/134/125
f 103/113/103 102/110/102 117/133/117 118/135/118
f 111/114/111 110/112/110 125/134/125 126/136/126
f 104/115/104 103/113/103 118/135/118 119/137/119
f 112/116/112 111/114/111 126/136/126 127/138/127
f 105/117/105 104/115/104 119/137/119 120/124/120
f 113/118/113 112/116/112 127/138/127 128/127/128
f 125/134/125 124/132/124 139/139/139 140/140/140
f 118/135/118 117/133/117 132/141/132 133/142/133
f 126/136/126 125/134/125 140/140/140 141/143/141
f 119/137/119 118/135/118 133/142/133 134/144/134
f 127/138/127 126/136/126 141/143/141 142/145/142
f 120/124/120 119/137/119 134/144/134 135/146/135
f 128/127/128 127/138/127 142/145/142 143/147/143
f 121/125/121 120/124/120 135/146/135 136/148/136
f 114/126/114 1/10/1 129/149/129
f 8/91/8 128/127/128 143/147/143
f 122/128/122 121/125/121 136/148/136 137/150/137
f 115/129/115 114/126/114 129/149/129 130/151/130
f 123/130/123 122/128/122 137/150/137 138/152/138
f 116/131/116 115/129/115 130/151/130 131/153/131
f 124/132/124 123/130/123 138/152/138 139/139/139
f 117/133/117 116/131/116 131/153/131 132/141/132
f 8/91/8 143/147/143 158/154/158
f 137/150/137 136/148/136 151/155/151 152/156/152
f 130/151/130 129/149/129 144/157/144 145/158/145
f 138/152/138 137/150/137 152/156/152 153/159/153
f 131/153/131 130/151/130 145/158/145 146/160/146
f 139/139/139 138/152/138 153/159/153 154/161/154
f 132/141/132 131/153/131 146/160/146 147/162/147
f 140/140/140 139/139/139 154/161/154 155/163/155
f 133/142/133 132/141/132 147/162/147 148/164/148
f 141/143/141 140/140/140 155/163/155 156/165/156
f 134/144/134 133/142/133 148/164/148 149/166/149
f 142/145/142 141/143/141 156/165/156 157/167/157
f 135/146/135 134/144/134 149/166/149 150/168/150
f 143/147/143 142/145/142 157/167/157 158/154/158
f 136/148/136 135/146/135 150/168/150 151/155/151
f 129/149/129 1/10/1 144/157/144
f 156/165/156 155/163/155 170/169/170 171/170/171
f 149/166/149 148/164/148 163/171/163 164/172/164
f 157/167/157 156/165/156 171/170/171 172/173/172
f 150/168/150 149/166/149 164/172/164 165/174/165
f 158/154/158 157/167/157 172/173/172 173/175/173
f 151/155/151 150/168/150 165/174/165 166/176/166
f 144/157/144 1/10/1 159/177/159
f 8/91/8 158/154/158 173/175/173
f 152/156/152 151/155/151 166/176/166 167/178/167
f 145/158/145 144/157/144 159/177/159 160/179/160
f 153/159/153 152/156/152 167/178/167 168/180/168
f 146/160/146 145/158/145 160/179/160 161/181/161
f 154/161/154 153/159/153 168/180/168 169/182/169
f 147/162/147 146/160/146 161/181/161 162/183/162
f 155/163/155 154/161/154 169/182/169 170/169/170
f 148/164/148 147/162/147 162/183/162 163/171/163
f 160/179/160 159/177/159 174/184/174 175/185/175
f 168/180/168 167/178/167 182/186/182 183/187/183
f 161/181/161 160/179/160 175/185/175 176/188/176
f 169/182/169 168/180/168 183/187/183 184/189/184
f 162/183/162 161/181/161 176/188/176 177/190/177
f 170/169/170 169/182/169 184/189/184 185/191/185
f 163/171/163 162/183/162 177/190/177 178/192/178
f 171/170/171 170/169/170 185/191/185 186/193/186
f 164/172/164 163/171/163 178/192/178 179/194/179
f 172/173/172 171/170/171 186/193/186 187/195/187
f 165/174/165 164/172/164 179/194/179 180/196/180
f 173/175/173 172/173/172 187/195/187 188/197/188
f 166/176/166 165/174/165 180/196/180 181/198/181
f 159/177/159 1/10/1 174/184/174
f 8/91/8 173/175/173 188/197/188
f 167/178/167 166/176/166 181/198/181 182/186/182
f 179/194/179 178/192/178 193/199/193 194/200/194
f 187/195/187 186/193/186 201/201/201 202/202/202
f 180/196/180 179/194/179 194/200/194 195/203/195
f 188/197/188 187/195/187 202/202/202 203/204/203
f 181/198/181 180/196/180 195/203/195 196/205/196
f 174/184/174 1/10/1 189/206/189
f 8/91/8 188/197/188 203/204/203
f 182/186/182 181/198/181 196/205/196 197/207/197
f 175/185/175 174/184/174 189/206/189 190/208/190
f 183/187/183 182/186/182 197/207/197 198/209/198
f 176/188/176 175/185/175 190/208/190 191/210/191
f 184/189/184 183/187/183 198/209/198 199/211/199
f 177/190/177 176/188/176 191/210/191 192/212/192
f 185/191/185 184/189/184 199/211/199 200/213/200
f 178/192/178 177/190/177 192/212/192 193/199/193
f 186/193/186 185/191/185 200/213/200 201/201/201
f 198/209/198 197/207/197 212/214/212 213/215/213
f 191/210/191 190/208/190 205/216/205 206/217/206
f 199/211/199 198/209/198 213/215/213 214/218/214
f 192/212/192 191/210/191 206/217/206 207/219/207
f 200/213/200 199/211/199 214/218/214 215/220/215
f 193/199/193 192/212/192 207/219/207 208/221/208
f 201/201/201 200/213/200 215/220/215 216/222/216
f 194/200/194 193/199/193 208/221/208 209/223/209
f 202/202/202 201/201/201 216/222/216 217/224/217
f 195/203/195 194/200/194 209/223/209 210/225/210
f 203/204/203 202/202/202 217/224/217 218/226/218
f 196/205/196 195/203/195 210/225/210 211/227/211
f 189/206/189 1/10/1 204/228/204
f 8/91/8 203/204/203 218/226/218
f 197/207/197 196/205/196 211/227/211 212/214/212
f 190/208/190 189/206/189 204/228/204 205/216/205
f 217/224/217 216/222/216 231/229/231 232/230/232
f 210/225/210 209/223/209 224/231/224 225/232/225
f 218/226/218 217/224/217 232/230/232 233/233/233
f 211/227/211 210/225/210 225/232/225 226/234/226
f 204/228/204 1/10/1 219/235/219
f 8/91/8 218/226/218 233/233/233
f 212/214/212 211/227/211 226/234/226 227/236/227
f 205/216/205 204/228/204 219/235/219 220/237/220
f 213/215/213 212/214/212 227/236/227 228/238/228
f 206/217/206 205/216/205 220/237/220 221/239/221
f 214/218/214 213/215/213 228/238/228 229/240/229
f 207/219/207 206/217/206 221/239/221 222/241/222
f 215/220/215 214/218/214 229/240/229 230/242/230
f 208/221/208 207/219/207 222/241/222 223/243/223
f 216/222/216 215/220/215 230/242/230 231/229/231
f 209/223/209 208/221/208 223/243/223 224/231/224
f 221/239/221 220/237/220 235/244/235 236/245/236
f 229/240/229 228/238/228 243/246/243 244/247/244
f 222/241/222 221/239/221 236/245/236 237/248/237
f 230/242/230 229/240/229 244/247/244 245/249/245
f 223/243/223 222/241/222 237/248/237 238/250/238
f 231/229/231 230/242/230 245/249/245 246/251/246
f 224/231/224 223/243/223 238/250/238 239/252/239
f 232/230/232 231/229/231 246/251/246 247/253/247
f 225/232/225 224/231/224 239/252/239 240/254/240
f 233/233/233 232/230/232 247/253/247 248/255/248
f 226/234/226 225/232/225 240/254/240 241/256/241
f 219/235/219 1/10/1 234/257/234
f 8/91/8 233/233/233 248/255/248
f 227/236/227 226/234/226 241/256/241 242/258/242
f 220/237/220 219/235/219 234/257/234 235/244/235
f 228/238/228 227/236/227 242/258/242 243/246/243
f 240/254/240 239/252/239 254/259/254 255/260/255
f 248/255/248 247/253/247 262/261/262 263/262/263
f 241/256/241 240/254/240 255/260/255 256/263/256
f 234/257/234 1/10/1 249/264/249
f 8/91/8 248/255/248 263/262/263
f 242/258/242 241/256/241 256/263/256 257/265/257
f 235/244/235 234/257/234 249/264/249 250/266/250
f 243/246/243 242/258/242 257/265/257 258/267/258
f 236/245/236 235/244/235 250/266/250 251/268/251
f 244/247/244 243/246/243 258/267/258 259/269/259
f 237/248/237 236/245/236 251/268/251 252/270/252
f 245/249/245 244/247/244 259/269/259 260/271/260
f 238/250/238 237/248/237 252/270/252 253/272/253
f 246/251/246 245/249/245 260/271/260 261/273/261
f 239/252/239 238/250/238 253/272/253 254/259/254
f 247/253/247 246/251/246 261/273/261 262/261/262
f 259/269/259 258/267/258 273/274/273 274/275/274
f 252/270/252 251/268/251 266/276/266 267/277/267
f 260/271/260 259/269/259 274/275/274 275/278/275
f 253/272/253 252/270/252 267/277/267 268/279/268
f 261/273/261 260/271/260 275/278/275 276/280/276
f 254/259/254 253/272/253 268/279/268 269/281/269
f 262/261/262 261/273/261 276/280/276 277/282/277
f 255/260/255 254/259/254 269/281/269 270/283/270
f 263/262/263 262/261/262 277/282/277 278/284/278
f 256/263/256 255/260/255 270/283/270 271/285/271
f 249/264/249 1/10/1 264/286/264
f 8/91/8 263/262/263 278/284/278
f 257/265/257 256/263/256 271/285/271 272/287/272
f 250/266/250 249/264/249 264/286/264 265/288/265
f 258/267/258 257/265/257 272/287/272 273/274/273
f 251/268/251 250/266/250 265/288/265 266/276/266
f 278/284/278 277/282/277 292/289/292 293/290/293
f 271/285/271 270/283/270 285/291/285 286/292/286
f 264/286/264 1/10/1 279/293/279
f 8/91/8 278/284/278 293/290/293
f 272/287/272 271/285/271 286/292/286 287/294/287
f 265/288/265 264/286/264 279/293/279 280/295/280
f 273/274/273 272/287/272 287/294/287 288/296/288
f 266/276/266 265/288/265 280/295/280 281/297/281
f 274/275/274 273/274/273 288/296/288 289/298/289
f 267/277/267 266/276/266 281/297/281 282/299/282
f 275/278/275 274/275/274 289/298/289 290/300/290
f 268/279/268 267/277/267 282/299/282 283/301/283
f 276/280/276 275/278/275 290/300/290 291/302/291
f 269/281/269 268/279/268 283/301/283 284/303/284
f 277/282/277 276/280/276 291/302/291 292/289/292
f 270/283/270 269/281/269 284/303/284 285/291/285
f 290/300/290 289/298/289 304/304/304 305/305/305
f 283/301/283 282/299/282 297/306/297 298/307/298
f 291/302/291 290/300/290 305/305/305 306/308/306
f 284/303/284 283/301/283 298/307/298 299/309/299
f 292/289/292 291/302/291 306/308/306 307/310/307
f 285/291/285 284/303/284 299/309/299 300/311/300
f 293/290/293 292/289/292 307/310/307 308/312/308
f 286/292/286 285/291/285 300/311/300 301/313/301
f 279/293/279 1/10/1 294/314/294
f 8/91/8 293/290/293 308/312/308
f 287/294/287 286/292/286 301/313/301 302/315/302
f 280/295/280 279/293/279 294/314/294 295/316/295
f 288/296/288 287/294/287 302/315/302 303/317/303
f 281/297/281 280/295/280 295/316/295 296/318/296
f 289/298/289 288/296/288 303/317/303 304/304/304
f 282/299/282 281/297/281 296/318/296 297/306/297
f 294/314/294 1/10/1 309/319/309
f 8/12/8 308/320/308 323/321/323
f 302/322/302 301/323/301 316/324/316 317/325/317
f 295/326/295 294/327/294 309/319/309 310/328/310
f 303/329/303 302/322/302 317/325/317 318/330/318
f 296/331/296 295/326/295 310/328/310 311/332/311
f 304/333/304 303/329/303 318/330/318 319/334/319
f 297/335/297 296/331/296 311/332/311 312/336/312
f 305/337/305 304/333/304 319/334/319 320/338/320
f 298/339/298 297/335/297 312/336/312 313/340/313
f 306/341/306 305/337/305 320/338/320 321/342/321
f 299/343/299 298/339/298 313/340/313 314/344/314
f 307/345/307 306/341/306 321/342/321 322/346/322
f 300/347/300 299/343/299 314/344/314 315/348/315
f 308/320/308 307/345/307 322/346/322 323/321/323
f 301/323/301 300/347/300 315/348/315 316/324/316
f 313/340/313 312/336/312 327/349/327 328/350/328
f 321/342/321 320/338/320 335/351/335 336/352/336
f 314/344/314 313/340/313 328/350/328 329/353/329
f 322/346/322 321/342/321 336/352/336 337/354/337
f 315/348/315 314/344/314 329/353/329 330/355/330
f 323/321/323 322/346/322 337/354/337 338/356/338
f 316/324/316 315/348/315 330/355/330 331/357/331
f 309/319/309 1/10/1 324/358/324
f 8/12/8 323/321/323 338/356/338
f 317/325/317 316/324/316 331/357/331 332/359/332
f 310/328/310 309/319/309 324/358/324 325/360/325
f 318/330/318 317/325/317 332/359/332 333/361/333
f 311/332/311 310/328/310 325/360/325 326/362/326
f 319/334/319 318/330/318 333/361/333 334/363/334
f 312/336/312 311/332/311 326/362/326 327/349/327
f 320/338/320 319/334/319 334/363/334 335/351/335
f 332/359/332 331/357/331 346/364/346 347/365/347
f 325/360/325 324/358/324 339/366/339 340/367/340
f 333/361/333 332/359/332 347/365/347 348/368/348
f 326/362/326 325/360/325 340/367/340 341/369/341
f 334/363/334 333/361/333 348/368/348 349/370/349
f 327/349/327 326/362/326 341/369/341 342/371/342
f 335/351/335 334/363/334 349/370/349 350/372/350
f 328/350/328 327/349/327 342/371/342 343/373/343
f 336/352/336 335/351/335 350/372/350 351/374/351
f 329/353/329 328/350/328 343/373/343 344/375/344
f 337/354/337 336/352/336 351/374/351 352/376/352
f 330/355/330 329/353/329 344/375/344 345/377/345
f 338/356/338 337/354/337 352/376/352 353/378/353
f 331/357/331 330/355/330 345/377/345 346/364/346
f 324/358/324 1/10/1 339/366/339
f 8/12/8 338/356/338 353/378/353
f 351/374/351 350/372/350 365/379/365 366/380/366
f 344/375/344 343/373/343 358/381/358 359/382/359
f 352/376/352 351/374/351 366/380/366 367/383/367
f 345/377/345 344/375/344 359/382/359 360/384/360
f 353/378/353 352/376/352 367/383/367 368/385/368
f 346/364/346 345/377/345 360/384/360 361/386/361
f 339/366/339 1/10/1 354/387/354
f 8/12/8 353/378/353 368/385/368
f 347/365/347 346/364/346 361/386/361 362/388/362
f 340/367/340 339/366/339 354/387/354 355/389/355
f 348/368/348 347/365/347 362/388/362 363/390/363
f 341/369/341 340/367/340 355/389/355 356/391/356
f 349/370/349 348/368/348 363/390/363 364/392/364
f 342/371/342 341/369/341 356/391/356 357/393/357
f 350/372/350 349/370/349 364/392/364 365/379/365
f 343/373/343 342/371/342 357/393/357 358/381/358
f 355/389/355 354/387/354 369/394/369 370/395/370
f 363/390/363 362/388/362 377/396/377 378/397/378
f 356/391/356 355/389/355 370/395/370 371/398/371
f 364/392/364 363/390/363 378/397/378 379/399/379
f 357/393/357 356/391/356 371/398/371 372/400/372
f 365/379/365 364/392/364 379/399/379 380/401/380
f 358/381/358 357/393/357 372/400/372 373/402/373
f 366/380/366 365/379/365 380/401/380 381/403/381
f 359/382/359 358/381/358 373/402/373 374/404/374
f 367/383/367 366/380/366 381/403/381 382/405/382
f 360/384/360 359/382/359 374/404/374 375/406/375
f 368/385/368 367/383/367 382/405/382 383/407/383
f 361/386/361 360/384/360 375/406/375 376/408/376
f 354/387/354 1/10/1 369/394/369
f 8/12/8 368/385/368 383/407/383
f 362/388/362 361/386/361 376/408/376 377/396/377
f 374/404/374 373/402/373 388/409/388 389/410/389
f 382/405/382 381/403/381 396/411/396 397/412/397
f 375/406/375 374/404/374 389/410/389 390/413/390
f 383/407/383 382/405/382 397/412/397 398/414/398
f 376/408/376 375/406/375 390/413/390 391/415/391
f 369/394/369 1/10/1 384/416/384
f 8/12/8 383/407/383 398/414/398
f 377/396/377 376/408/376 391/415/391 392/417/392
f 370/395/370 369/394/369 384/416/384 385/418/385
f 378/397/378 377/396/377 392/417/392 393/419/393
f 371/398/371 370/395/370 385/418/385 386/420/386
f 379/399/379 378/397/378 393/419/393 394/421/394
f 372/400/372 371/398/371 386/420/386 387/422/387
f 380/401/380 379/399/379 394/421/394 395/423/395
f 373/402/373 372/400/372 387/422/387 388/409/388
f 381/403/381 380/401/380 395/423/395 396/411/396
f 393/419/393 392/417/392 407/424/407 408/425/408
f 386/420/386 385/418/385 400/426/400 401/427/401
f 394/421/394 393/419/393 408/425/408 409/428/409
f 387/422/387 386/420/386 401/427/401 402/429/402
f 395/423/395 394/421/394 409/428/409 410/430/410
f 388/409/388 387/422/387 402/429/402 403/431/403
f 396/411/396 395/423/395 410/430/410 411/432/411
f 389/410/389 388/409/388 403/431/403 404/433/404
f 397/412/397 396/411/396 411/432/411 412/434/412
f 390/413/390 389/410/389 404/433/404 405/435/405
f 398/414/398 397/412/397 412/434/412 413/436/413
f 391/415/391 390/413/390 405/435/405 406/437/406
f 384/416/384 1/10/1 399/438/399
f 8/12/8 398/414/398 413/436/413
f 392/417/392 391/415/391 406/437/406 407/424/407
f 385/418/385 384/416/384 399/438/399 400/426/400
f 412/434/412 411/432/411 426/439/426 427/440/427
f 405/435/405 404/433/404 419/441/419 420/442/420
f 413/436/413 412/434/412 427/440/427 428/443/428
f 406/437/406 405/435/405 420/442/420 421/444/421
f 399/438/399 1/10/1 414/445/414
f 8/12/8 413/436/413 428/443/428
f 407/424/407 406/437/406 421/444/421 422/446/422
f 400/426/400 399/438/399 414/445/414 415/447/415
f 408/425/408 407/424/407 422/446/422 423/448/423
f 401/427/401 400/426/400 415/447/415 416/449/416
f 409/428/409 408/425/408 423/448/423 424/450/424
f 402/429/402 401/427/401 416/449/416 417/451/417
f 410/430/410 409/428/409 424/450/424 425/452/425
f 403/431/403 402/429/402 417/451/417 418/453/418
f 411/432/411 410/430/410 425/452/425 426/439/426
f 404/433/404 403/431/403 418/453/418 419/441/419
f 424/450/424 423/448/423 438/454/438 439/455/439
f 417/451/417 416/449/416 431/456/431 432/457/432
f 425/452/425 424/450/424 439/455/439 440/458/440
f 418/453/418 417/451/417 432/457/432 433/459/433
f 426/439/426 425/452/425 440/458/440 441/460/441
f 419/441/419 418/453/418 433/459/433 434/461/434
f 427/440/427 426/439/426 441/460/441 442/462/442
f 420/442/420 419/441/419 434/461/434 435/463/435
f 428/443/428 427/440/427 442/462/442 443/464/443
f 421/444/421 420/442/420 435/463/435 436/465/436
f 414/445/414 1/10/1 429/466/429
f 8/12/8 428/443/428 443/464/443
f 422/446/422 421/444/421 436/465/436 437/467/437
f 415/447/415 414/445/414 429/466/429 430/468/430
f 423/448/423 422/446/422 437/467/437 438/454/438
f 416/449/416 415/447/415 430/468/430 431/456/431
f 443/464/443 442/462/442 457/469/457 458/470/458
f 436/465/436 435/463/435 450/471/450 451/472/451
f 429/466/429 1/10/1 444/473/444
f 8/12/8 443/464/443 458/470/458
f 437/467/437 436/465/436 451/472/451 452/474/452
f 430/468/430 429/466/429 444/473/444 445/475/445
f 438/454/438 437/467/437 452/474/452 453/476/453
f 431/456/431 430/468/430 445/475/445 446/477/446
f 439/455/439 438/454/438 453/476/453 454/478/454
f 432/457/432 431/456/431 446/477/446 447/479/447
f 440/458/440 439/455/439 454/478/454 455/480/455
f 433/459/433 432/457/432 447/479/447 448/481/448
f 441/460/441 440/458/440 455/480/455 456/482/456
f 434/461/434 433/459/433 448/481/448 449/483/449
f 442/462/442 441/460/441 456/482/456 457/469/457
f 435/463/435 434/461/434 449/483/449 450/471/450
f 447/479/447 446/477/446 461/484/461 462/485/462
f 455/480/455 454/478/454 469/486/469 470/487/470
f 448/481/448 447/479/447 462/485/462 463/488/463
f 456/482/456 455/480/455 470/487/470 471/489/471
f 449/483/449 448/481/448 463/488/463 464/490/464
f 457/469/457 456/482/456 471/489/471 472/491/472
f 450/471/450 449/483/449 464/490/464 465/492/465
f 458/470/458 457/469/457 472/491/472 473/493/473
f 451/472/451 450/471/450 465/492/465 466/494/466
f 444/473/444 1/10/1 459/495/459
f 8/12/8 458/470/458 473/493/473
f 452/474/452 451/472/451 466/494/466 467/496/467
f 445/475/445 444/473/444 459/495/459 460/497/460
f 453/476/453 452/474/452 467/496/467 468/498/468
f 446/477/446 445/475/445 460/497/460 461/484/461
f 454/478/454 453/476/453 468/498/468 469/486/469
f 466/494/466 465/492/465 4/6/4 5/5/5
f 459/495/459 1/10/1 474/9/474
f 8/12/8 473/493/473 482/1/482
f 467/496/467 466/494/466 5/5/5 6/13/6
f 460/497/460 459/495/459 474/9/474 475/15/475
f 468/498/468 467/496/467 6/13/6 478/17/478
f 461/484/461 460/497/460 475/15/475 2/19/2
f 469/486/469 468/498/468 478/17/478 7/21/7
f 462/485/462 461/484/461 2/19/2 476/23/476
f 470/487/470 469/486/469 7/21/7 479/25/479
f 463/488/463 462/485/462 476/23/476 3/27/3
f 471/489/471 470/487/470 479/25/479 480/29/480
f 464/490/464 463/488/463 3/27/3 477/31/477
f 472/491/472 471/489/471 480/29/480 481/2/481
f 465/492/465 464/490/464 477/31/477 4/6/4
f 473/493/473 472/491/472 481/2/481 482/1/482
